<svg width="231" height="37" viewBox="0 0 231 37" fill="none" xmlns="http://www.w3.org/2000/svg">
<path d="M1 19.3069L13.4027 12.9338V14.0097C13.4027 14.1311 13.3696 14.236 13.3035 14.3242C13.2373 14.4125 13.1215 14.5008 12.9562 14.5891L3.81127 19.2241C3.44746 19.4117 3.05058 19.5552 2.62062 19.6545C3.08365 19.7538 3.48053 19.8917 3.81127 20.0683L12.9562 24.7198C13.1215 24.8081 13.2373 24.8964 13.3035 24.9847C13.3696 25.073 13.4027 25.1778 13.4027 25.2992V26.3752L1 19.9855V19.3069Z" fill="#C4A34E"/>
<path d="M38.1625 26.3752V25.2992C38.1625 25.1778 38.1956 25.073 38.2618 24.9847C38.3279 24.8854 38.4382 24.7971 38.5925 24.7198L47.7539 20.0683C48.0957 19.8917 48.4871 19.7538 48.9281 19.6545C48.7076 19.5993 48.5036 19.5386 48.3162 19.4724C48.1288 19.3951 47.9414 19.3124 47.7539 19.2241L38.5925 14.5891C38.3059 14.4346 38.1625 14.2415 38.1625 14.0097V12.9338L50.5652 19.3069V19.9855L38.1625 26.3752Z" fill="#C4A34E"/>
<path d="M25.8939 24.614C24.5797 27.0774 22.9011 29.0807 22.9011 29.0807L19.542 26.0217L20.0896 23.9102C20.0896 23.9102 20.6031 22.6005 20.9657 21.7988C21.8029 19.9475 22.4119 19.0856 23.3751 17.3999C24.2138 15.932 24.686 15.1102 25.5654 13.7049C26.359 12.4365 26.8322 11.7723 27.6462 10.5377C28.3722 9.43646 28.7713 8.80523 29.5079 7.72242C29.9325 7.09841 30.1707 6.74882 30.6031 6.13883C31.7676 4.49593 32.9029 2.7957 33.4505 2.09188C33.9981 1.38806 34.4944 0.620432 35.2028 0.508294C35.5459 0.453973 36.0789 0.684249 36.0789 0.684249C36.0789 0.684249 34.6961 3.7433 33.8886 5.78692C33.3539 7.13998 33.0876 7.93172 32.5744 9.30601L31.5887 11.9453C31.5887 11.9453 30.3026 15.3224 29.3984 17.3999C29.3984 17.3999 27.2081 22.1507 25.8939 24.614Z" fill="#C4A34E"/>
<path d="M21.973 30.6211L18.7402 27.6498C18.7402 27.6498 18.1102 27.8975 17.743 28.1235C17.4923 28.2777 17.3591 28.3773 17.1319 28.5645L17.1315 28.5648C16.8823 28.7702 16.74 28.8874 16.5317 29.1344C16.3234 29.3814 16.2318 29.5415 16.0714 29.8218L16.0712 29.8223C15.9249 30.0778 15.8532 30.2277 15.7393 30.4992C15.5906 30.8539 15.5424 31.0664 15.4292 31.434C15.3023 31.8463 15.257 32.0852 15.13 32.4975C15.0169 32.8651 14.9658 33.0764 14.8199 33.4323C14.6393 33.8731 14.5506 34.1378 14.2633 34.5176C14.0254 34.8321 13.8406 34.9661 13.5452 35.2272C13.2725 35.4683 13.12 35.6074 12.8163 35.808C12.4956 36.0198 11.9478 36.2708 11.9478 36.2708C11.9478 36.2708 12.5061 36.408 12.8707 36.4523C13.2745 36.5015 13.5049 36.5068 13.9114 36.4941C14.214 36.4847 14.6839 36.4288 14.6839 36.4288C14.6839 36.4288 15.3935 36.3987 15.8425 36.3308C16.2447 36.27 16.4717 36.2311 16.8615 36.1149C17.2135 36.0099 17.4058 35.9316 17.7409 35.781C18.1942 35.5772 18.4488 35.4526 18.856 35.1675C19.2117 34.9185 19.3946 34.7529 19.7028 34.447C20.0574 34.0949 20.2334 33.8726 20.5278 33.4688C20.8253 33.0608 20.9595 32.809 21.2132 32.3725C21.3962 32.0577 21.5164 31.8891 21.6629 31.5558C21.8178 31.2037 21.973 30.6211 21.973 30.6211Z" fill="#C4A34E"/>
<path d="M1 19.3069L13.4027 12.9338V14.0097C13.4027 14.1311 13.3696 14.236 13.3035 14.3242C13.2373 14.4125 13.1215 14.5008 12.9562 14.5891L3.81127 19.2241C3.44746 19.4117 3.05058 19.5552 2.62062 19.6545C3.08365 19.7538 3.48053 19.8917 3.81127 20.0683L12.9562 24.7198C13.1215 24.8081 13.2373 24.8964 13.3035 24.9847C13.3696 25.073 13.4027 25.1778 13.4027 25.2992V26.3752L1 19.9855V19.3069Z" stroke="#C4A34E"/>
<path d="M38.1625 26.3752V25.2992C38.1625 25.1778 38.1956 25.073 38.2618 24.9847C38.3279 24.8854 38.4382 24.7971 38.5925 24.7198L47.7539 20.0683C48.0957 19.8917 48.4871 19.7538 48.9281 19.6545C48.7076 19.5993 48.5036 19.5386 48.3162 19.4724C48.1288 19.3951 47.9414 19.3124 47.7539 19.2241L38.5925 14.5891C38.3059 14.4346 38.1625 14.2415 38.1625 14.0097V12.9338L50.5652 19.3069V19.9855L38.1625 26.3752Z" stroke="#C4A34E"/>
<path d="M25.8939 24.614C24.5797 27.0774 22.9011 29.0807 22.9011 29.0807L19.542 26.0217L20.0896 23.9102C20.0896 23.9102 20.6031 22.6005 20.9657 21.7988C21.8029 19.9475 22.4119 19.0856 23.3751 17.3999C24.2138 15.932 24.686 15.1102 25.5654 13.7049C26.359 12.4365 26.8322 11.7723 27.6462 10.5377C28.3722 9.43646 28.7713 8.80523 29.5079 7.72242C29.9325 7.09841 30.1707 6.74882 30.6031 6.13883C31.7676 4.49593 32.9029 2.7957 33.4505 2.09188C33.9981 1.38806 34.4944 0.620432 35.2028 0.508294C35.5459 0.453973 36.0789 0.684249 36.0789 0.684249C36.0789 0.684249 34.6961 3.7433 33.8886 5.78692C33.3539 7.13998 33.0876 7.93172 32.5744 9.30601L31.5887 11.9453C31.5887 11.9453 30.3026 15.3224 29.3984 17.3999C29.3984 17.3999 27.2081 22.1507 25.8939 24.614Z" stroke="#C4A34E"/>
<path d="M21.973 30.6211L18.7402 27.6498C18.7402 27.6498 18.1102 27.8975 17.743 28.1235C17.4923 28.2777 17.3591 28.3773 17.1319 28.5645L17.1315 28.5648C16.8823 28.7702 16.74 28.8874 16.5317 29.1344C16.3234 29.3814 16.2318 29.5415 16.0714 29.8218L16.0712 29.8223C15.9249 30.0778 15.8532 30.2277 15.7393 30.4992C15.5906 30.8539 15.5424 31.0664 15.4292 31.434C15.3023 31.8463 15.257 32.0852 15.13 32.4975C15.0169 32.8651 14.9658 33.0764 14.8199 33.4323C14.6393 33.8731 14.5506 34.1378 14.2633 34.5176C14.0254 34.8321 13.8406 34.9661 13.5452 35.2272C13.2725 35.4683 13.12 35.6074 12.8163 35.808C12.4956 36.0198 11.9478 36.2708 11.9478 36.2708C11.9478 36.2708 12.5061 36.408 12.8707 36.4523C13.2745 36.5015 13.5049 36.5068 13.9114 36.4941C14.214 36.4847 14.6839 36.4288 14.6839 36.4288C14.6839 36.4288 15.3935 36.3987 15.8425 36.3308C16.2447 36.27 16.4717 36.2311 16.8615 36.1149C17.2135 36.0099 17.4058 35.9316 17.7409 35.781C18.1942 35.5772 18.4488 35.4526 18.856 35.1675C19.2117 34.9185 19.3946 34.7529 19.7028 34.447C20.0574 34.0949 20.2334 33.8726 20.5278 33.4688C20.8253 33.0608 20.9595 32.809 21.2132 32.3725C21.3962 32.0577 21.5164 31.8891 21.6629 31.5558C21.8178 31.2037 21.973 30.6211 21.973 30.6211Z" stroke="#C4A34E"/>
<path d="M222.455 15.2124L222.666 17.872L222.561 17.4506C222.912 16.6431 223.482 16.0024 224.272 15.5284C225.062 15.0369 225.975 14.7911 227.011 14.7911C228.046 14.7911 228.889 15.0983 229.539 15.7127C230.206 16.3096 230.548 17.0908 230.565 18.0563V26.1138H228.09V18.9252C228.073 18.3284 227.897 17.8456 227.564 17.477C227.248 17.0908 226.747 16.8977 226.063 16.8977C225.431 16.8977 224.86 17.0732 224.351 17.4243C223.842 17.7754 223.438 18.2582 223.14 18.8726C222.859 19.487 222.719 20.1979 222.719 21.0054V26.1138H220.27V15.2124H222.455Z" fill="#4DB284"/>
<path d="M211.352 31.5119C210.545 31.5119 209.834 31.4153 209.219 31.2222C208.605 31.0467 208.043 30.7921 207.534 30.4586C207.043 30.1251 206.569 29.7476 206.112 29.3263L207.534 27.6674C208.113 28.2116 208.702 28.6329 209.298 28.9314C209.895 29.2298 210.562 29.379 211.3 29.379C212.125 29.379 212.818 29.2386 213.38 28.9577C213.959 28.6944 214.398 28.317 214.696 27.8254C214.995 27.3515 215.144 26.7985 215.144 26.1665L215.17 23.2174L215.381 23.6913C215.065 24.4462 214.495 25.0869 213.669 25.6136C212.844 26.1226 211.844 26.3772 210.668 26.3772C209.667 26.3772 208.745 26.1226 207.903 25.6136C207.078 25.1045 206.411 24.4199 205.902 23.5597C205.41 22.682 205.164 21.6989 205.164 20.6105C205.164 19.4695 205.428 18.4689 205.954 17.6087C206.481 16.731 207.174 16.0376 208.034 15.5285C208.895 15.0194 209.834 14.7649 210.852 14.7649C211.817 14.7649 212.695 14.9668 213.485 15.3705C214.293 15.7567 214.881 16.257 215.249 16.8714L215.118 17.3191L215.381 15.2125H217.619V26.1929C217.619 27.1759 217.365 28.0712 216.856 28.8787C216.347 29.6862 215.627 30.3269 214.696 30.8009C213.766 31.2749 212.651 31.5119 211.352 31.5119ZM207.613 20.5579C207.613 21.2601 207.78 21.9008 208.113 22.4801C208.447 23.0594 208.895 23.5158 209.456 23.8493C210.036 24.1829 210.676 24.3496 211.379 24.3496C212.028 24.3496 212.607 24.2355 213.116 24.0073C213.643 23.7616 214.082 23.4368 214.433 23.0331C214.784 22.6117 215.03 22.129 215.17 21.5848V19.4256C215.012 18.899 214.749 18.4426 214.38 18.0564C214.012 17.6526 213.573 17.3454 213.064 17.1347C212.555 16.9065 211.993 16.7924 211.379 16.7924C210.676 16.7924 210.036 16.9504 209.456 17.2664C208.895 17.5824 208.447 18.03 208.113 18.6093C207.78 19.1711 207.613 19.8206 207.613 20.5579Z" fill="#4DB284"/>
<path d="M201.006 15.2124H203.455V26.1138H201.006V15.2124ZM200.822 11.2627C200.822 10.8765 200.971 10.5517 201.27 10.2884C201.586 10.0251 201.928 9.89343 202.297 9.89343C202.665 9.89343 202.99 10.0251 203.271 10.2884C203.569 10.5517 203.719 10.8765 203.719 11.2627C203.719 11.6664 203.569 12 203.271 12.2633C202.99 12.5091 202.665 12.6319 202.297 12.6319C201.928 12.6319 201.586 12.5003 201.27 12.237C200.971 11.9736 200.822 11.6489 200.822 11.2627Z" fill="#4DB284"/>
<path d="M194.918 26.3245C194.146 26.3245 193.391 26.1929 192.653 25.9295C191.934 25.6487 191.337 25.2361 190.863 24.6919L191.89 23.27C192.346 23.7089 192.811 24.0424 193.285 24.2706C193.777 24.4813 194.26 24.5866 194.734 24.5866C195.085 24.5866 195.409 24.5427 195.708 24.455C196.006 24.3672 196.243 24.2267 196.419 24.0336C196.612 23.823 196.708 23.5421 196.708 23.191C196.708 22.8048 196.577 22.4976 196.314 22.2694C196.068 22.0412 195.743 21.8569 195.339 21.7165C194.953 21.576 194.541 21.4444 194.102 21.3215C193.206 21.0231 192.522 20.6105 192.048 20.0839C191.574 19.5573 191.337 18.9165 191.337 18.1617C191.337 17.5824 191.477 17.047 191.758 16.5554C192.057 16.0464 192.487 15.6338 193.048 15.3178C193.628 15.0019 194.339 14.8439 195.181 14.8439C195.936 14.8439 196.612 14.9404 197.209 15.1335C197.806 15.3091 198.367 15.6075 198.894 16.0288L197.92 17.556C197.604 17.2225 197.226 16.9767 196.787 16.8188C196.349 16.6608 195.954 16.573 195.603 16.5554C195.304 16.5379 195.014 16.5818 194.734 16.6871C194.47 16.7924 194.251 16.9416 194.075 17.1347C193.9 17.3278 193.812 17.556 193.812 17.8194C193.812 18.188 193.935 18.4864 194.181 18.7146C194.426 18.9428 194.742 19.1272 195.129 19.2676C195.532 19.3905 195.927 19.5221 196.314 19.6626C196.858 19.8206 197.34 20.0312 197.762 20.2945C198.183 20.5579 198.517 20.8826 198.762 21.2688C199.026 21.655 199.157 22.1378 199.157 22.7171C199.157 23.3666 198.999 23.9722 198.683 24.534C198.385 25.0781 197.92 25.517 197.288 25.8505C196.673 26.1665 195.883 26.3245 194.918 26.3245Z" fill="#4DB284"/>
<path d="M184.819 26.3772C183.572 26.3772 182.501 26.1314 181.606 25.6399C180.711 25.1308 180.017 24.4462 179.526 23.586C179.052 22.7083 178.815 21.7077 178.815 20.5842C178.815 19.5134 179.087 18.5391 179.631 17.6614C180.175 16.7837 180.904 16.0815 181.817 15.5548C182.73 15.0282 183.748 14.7649 184.871 14.7649C186.311 14.7649 187.504 15.1862 188.452 16.0288C189.4 16.8714 190.041 18.03 190.375 19.5046L181.395 22.6644L180.816 21.2162L188.189 18.5303L187.662 18.8726C187.452 18.2933 187.101 17.793 186.609 17.3717C186.118 16.9329 185.477 16.7134 184.687 16.7134C184.02 16.7134 183.423 16.8802 182.896 17.2137C182.37 17.5297 181.957 17.9686 181.659 18.5303C181.36 19.0921 181.211 19.7328 181.211 20.4525C181.211 21.2074 181.369 21.8745 181.685 22.4538C182.001 23.0155 182.431 23.4631 182.975 23.7967C183.537 24.1127 184.169 24.2706 184.871 24.2706C185.345 24.2706 185.802 24.1829 186.24 24.0073C186.697 23.8318 187.118 23.6036 187.504 23.3227L188.637 25.1396C188.092 25.5082 187.478 25.8067 186.793 26.0349C186.126 26.2631 185.468 26.3772 184.819 26.3772Z" fill="#4DB284"/>
<path d="M162.123 26.1138V7.07593H167.31C169.189 7.07593 170.786 7.36558 172.103 7.94487C173.437 8.52417 174.508 9.28779 175.315 10.2357C176.123 11.1837 176.711 12.2369 177.079 13.3955C177.465 14.5366 177.659 15.6776 177.659 16.8187C177.659 18.2581 177.404 19.5484 176.895 20.6894C176.403 21.8305 175.719 22.8048 174.841 23.6123C173.963 24.4198 172.954 25.0429 171.813 25.4818C170.689 25.9031 169.496 26.1138 168.232 26.1138H162.123ZM164.677 23.6649H167.732C168.785 23.6649 169.75 23.5069 170.628 23.191C171.523 22.875 172.296 22.4186 172.945 21.8217C173.612 21.2248 174.13 20.4963 174.499 19.6362C174.867 18.7584 175.052 17.7666 175.052 16.6607C175.052 15.4845 174.859 14.4576 174.472 13.5799C174.086 12.6846 173.56 11.9385 172.893 11.3417C172.225 10.7448 171.471 10.2972 170.628 9.99875C169.785 9.68277 168.899 9.52478 167.969 9.52478H164.677V23.6649Z" fill="#4DB284"/>
<path d="M147.372 26.3771C146.372 26.3771 145.485 26.1577 144.713 25.7188C143.958 25.28 143.352 24.727 142.896 24.0599L143.185 23.2963V26.1138H140.737V5.73303H143.159V17.714L143.08 16.7924C143.519 16.1955 144.142 15.7128 144.95 15.3441C145.775 14.9579 146.688 14.7648 147.688 14.7648C148.671 14.7648 149.567 15.0018 150.374 15.4758C151.182 15.9497 151.822 16.6168 152.296 17.477C152.788 18.3196 153.034 19.329 153.034 20.5051C153.034 21.7339 152.77 22.7872 152.244 23.6649C151.734 24.5427 151.05 25.2185 150.19 25.6925C149.33 26.1489 148.39 26.3771 147.372 26.3771ZM146.872 24.2969C147.574 24.2969 148.206 24.1301 148.768 23.7966C149.33 23.4631 149.768 23.0154 150.084 22.4537C150.4 21.8744 150.558 21.2161 150.558 20.4788C150.558 19.7766 150.392 19.1447 150.058 18.5829C149.742 18.0036 149.303 17.5472 148.741 17.2137C148.197 16.8801 147.574 16.7134 146.872 16.7134C146.275 16.7134 145.722 16.8275 145.213 17.0557C144.704 17.2839 144.274 17.5999 143.923 18.0036C143.572 18.3898 143.326 18.8462 143.185 19.3729V21.5584C143.326 22.085 143.563 22.559 143.896 22.9803C144.23 23.3841 144.651 23.7088 145.16 23.9546C145.669 24.1828 146.24 24.2969 146.872 24.2969Z" fill="#4DB284"/>
<path d="M133.692 26.3772C132.446 26.3772 131.375 26.1314 130.48 25.6399C129.585 25.1308 128.891 24.4462 128.4 23.586C127.926 22.7083 127.689 21.7077 127.689 20.5842C127.689 19.5134 127.961 18.5391 128.505 17.6614C129.049 16.7837 129.778 16.0815 130.691 15.5548C131.603 15.0282 132.622 14.7649 133.745 14.7649C135.184 14.7649 136.378 15.1862 137.326 16.0288C138.274 16.8714 138.915 18.03 139.248 19.5046L130.269 22.6644L129.69 21.2162L137.063 18.5303L136.536 18.8726C136.326 18.2933 135.974 17.793 135.483 17.3717C134.991 16.9329 134.351 16.7134 133.561 16.7134C132.894 16.7134 132.297 16.8802 131.77 17.2137C131.244 17.5297 130.831 17.9686 130.533 18.5303C130.234 19.0921 130.085 19.7328 130.085 20.4525C130.085 21.2074 130.243 21.8745 130.559 22.4538C130.875 23.0155 131.305 23.4631 131.849 23.7967C132.411 24.1127 133.043 24.2706 133.745 24.2706C134.219 24.2706 134.675 24.1829 135.114 24.0073C135.571 23.8318 135.992 23.6036 136.378 23.3227L137.51 25.1396C136.966 25.5082 136.352 25.8067 135.667 26.0349C135 26.2631 134.342 26.3772 133.692 26.3772Z" fill="#4DB284"/>
<path d="M105.068 7.18127H108.017L113.178 21.7164L112.731 21.5321L116.496 11.7893L117.681 15.2388L112.652 26.9827L105.068 7.18127ZM114.205 7.18127H116.76L122.342 21.5057L121.815 21.4004L126.739 7.18127H129.451L121.973 26.9564L114.205 7.18127Z" fill="#4DB284"/>
<path d="M88.5811 15.2124L88.7918 17.872L88.6864 17.4506C89.0375 16.6431 89.608 16.0024 90.398 15.5284C91.1879 15.0369 92.1008 14.7911 93.1365 14.7911C94.1722 14.7911 95.0148 15.0983 95.6643 15.7127C96.3314 16.3096 96.6737 17.0908 96.6913 18.0563V26.1138H94.2161V18.9252C94.1985 18.3284 94.023 17.8456 93.6895 17.477C93.3735 17.0908 92.8732 16.8977 92.1885 16.8977C91.5566 16.8977 90.9861 17.0732 90.477 17.4243C89.9679 17.7754 89.5642 18.2582 89.2657 18.8726C88.9849 19.487 88.8444 20.1979 88.8444 21.0054V26.1138H86.3956V15.2124H88.5811Z" fill="#4DB284"/>
<path d="M79.3509 26.3772C78.1046 26.3772 77.0337 26.1314 76.1385 25.6399C75.2432 25.1308 74.5498 24.4462 74.0582 23.586C73.5843 22.7083 73.3473 21.7077 73.3473 20.5842C73.3473 19.5134 73.6194 18.5391 74.1636 17.6614C74.7078 16.7837 75.4363 16.0815 76.3491 15.5548C77.2619 15.0282 78.2801 14.7649 79.4036 14.7649C80.8431 14.7649 82.0368 15.1862 82.9847 16.0288C83.9326 16.8714 84.5734 18.03 84.9069 19.5046L75.9278 22.6644L75.3485 21.2162L82.7214 18.5303L82.1948 18.8726C81.9841 18.2933 81.633 17.793 81.1415 17.3717C80.65 16.9329 80.0092 16.7134 79.2193 16.7134C78.5522 16.7134 77.9553 16.8802 77.4287 17.2137C76.9021 17.5297 76.4895 17.9686 76.1911 18.5303C75.8927 19.0921 75.7435 19.7328 75.7435 20.4525C75.7435 21.2074 75.9015 21.8745 76.2175 22.4538C76.5334 23.0155 76.9635 23.4631 77.5077 23.7967C78.0694 24.1127 78.7014 24.2706 79.4036 24.2706C79.8776 24.2706 80.334 24.1829 80.7728 24.0073C81.2293 23.8318 81.6506 23.6036 82.0368 23.3227L83.169 25.1396C82.6248 25.5082 82.0104 25.8067 81.3258 26.0349C80.6587 26.2631 80.0004 26.3772 79.3509 26.3772Z" fill="#4DB284"/>
<path d="M56.3391 26.1138C56.5322 25.833 56.8218 25.4029 57.208 24.8236C57.6118 24.2443 58.077 23.5597 58.6036 22.7697C59.1302 21.9798 59.692 21.1284 60.2888 20.2155C60.9032 19.3027 61.5264 18.3723 62.1584 17.4244C62.8079 16.4764 63.4311 15.5548 64.0279 14.6595C64.6424 13.7467 65.2129 12.9041 65.7395 12.1317C66.2661 11.3417 66.7226 10.6659 67.1088 10.1041C67.5125 9.52485 67.8109 9.10354 68.004 8.84022L68.3464 9.52485H59.5516C59.218 9.52485 58.8845 9.4634 58.5509 9.34052C58.2174 9.21764 57.9453 9.03332 57.7347 8.78756C57.524 8.54179 57.4187 8.25215 57.4187 7.91861V6.12805H59.7885V6.47036C59.7885 6.78635 59.85 6.97067 59.9729 7.02333C60.0957 7.05844 60.3064 7.07599 60.6048 7.07599H72.0065L60.4995 23.981L60.3415 23.665H72.3224V26.1138H56.3391Z" fill="#4DB284"/>
</svg>
