<svg width="231" height="38" viewBox="0 0 231 38" fill="none" xmlns="http://www.w3.org/2000/svg">
<rect width="231" height="38" fill="#F5F5F5"/>
<g id="Dark" clip-path="url(#clip0_28_915)">
<rect width="1280" height="2534" transform="translate(-63 -2319)" fill="#1B2317"/>
<g id="Footer">
<rect width="1280" height="278" transform="translate(-63 -63)" fill="#1B2317"/>
<g id="Frame 19">
<g id="Logo">
<g id="Vector">
<path d="M1 19.8069L13.4027 13.4338V14.5097C13.4027 14.6311 13.3696 14.736 13.3035 14.8242C13.2373 14.9125 13.1215 15.0008 12.9562 15.0891L3.81127 19.7241C3.44746 19.9117 3.05058 20.0552 2.62062 20.1545C3.08365 20.2538 3.48053 20.3917 3.81127 20.5683L12.9562 25.2198C13.1215 25.3081 13.2373 25.3964 13.3035 25.4847C13.3696 25.573 13.4027 25.6778 13.4027 25.7992V26.8752L1 20.4855V19.8069Z" fill="white"/>
<path d="M38.1625 26.8752V25.7992C38.1625 25.6778 38.1956 25.573 38.2618 25.4847C38.3279 25.3854 38.4382 25.2971 38.5925 25.2198L47.7539 20.5683C48.0957 20.3917 48.4871 20.2538 48.9281 20.1545C48.7076 20.0993 48.5036 20.0386 48.3162 19.9724C48.1288 19.8951 47.9414 19.8124 47.7539 19.7241L38.5925 15.0891C38.3059 14.9346 38.1625 14.7415 38.1625 14.5097V13.4338L50.5652 19.8069V20.4855L38.1625 26.8752Z" fill="white"/>
<path d="M25.8939 25.114C24.5797 27.5774 22.9011 29.5807 22.9011 29.5807L19.542 26.5217L20.0896 24.4102C20.0896 24.4102 20.6031 23.1005 20.9657 22.2988C21.8029 20.4475 22.4119 19.5856 23.3751 17.8999C24.2138 16.432 24.686 15.6102 25.5654 14.2049C26.359 12.9365 26.8322 12.2723 27.6462 11.0377C28.3722 9.93646 28.7713 9.30523 29.5079 8.22242C29.9325 7.59841 30.1707 7.24882 30.6031 6.63883C31.7676 4.99593 32.9029 3.2957 33.4505 2.59188C33.9981 1.88806 34.4944 1.12043 35.2028 1.00829C35.5459 0.953973 36.0789 1.18425 36.0789 1.18425C36.0789 1.18425 34.6961 4.2433 33.8886 6.28692C33.3539 7.63998 33.0876 8.43172 32.5744 9.80601L31.5887 12.4453C31.5887 12.4453 30.3026 15.8224 29.3984 17.8999C29.3984 17.8999 27.2081 22.6507 25.8939 25.114Z" fill="white"/>
<path d="M21.973 31.1211L18.7402 28.1498C18.7402 28.1498 18.1102 28.3975 17.743 28.6235C17.4923 28.7777 17.3591 28.8773 17.1319 29.0645L17.1315 29.0648C16.8823 29.2702 16.74 29.3874 16.5317 29.6344C16.3234 29.8814 16.2318 30.0415 16.0714 30.3218L16.0712 30.3223C15.9249 30.5778 15.8532 30.7277 15.7393 30.9992C15.5906 31.3539 15.5424 31.5664 15.4292 31.934C15.3023 32.3463 15.257 32.5852 15.13 32.9975C15.0169 33.3651 14.9658 33.5764 14.8199 33.9323C14.6393 34.3731 14.5506 34.6378 14.2633 35.0176C14.0254 35.3321 13.8406 35.4661 13.5452 35.7272C13.2725 35.9683 13.12 36.1074 12.8163 36.308C12.4956 36.5198 11.9478 36.7708 11.9478 36.7708C11.9478 36.7708 12.5061 36.908 12.8707 36.9523C13.2745 37.0015 13.5049 37.0068 13.9114 36.9941C14.214 36.9847 14.6839 36.9288 14.6839 36.9288C14.6839 36.9288 15.3935 36.8987 15.8425 36.8308C16.2447 36.77 16.4717 36.7311 16.8615 36.6149C17.2135 36.5099 17.4058 36.4316 17.7409 36.281C18.1942 36.0772 18.4488 35.9526 18.856 35.6675C19.2117 35.4185 19.3946 35.2529 19.7028 34.947C20.0574 34.5949 20.2334 34.3726 20.5278 33.9688C20.8253 33.5608 20.9595 33.309 21.2132 32.8725C21.3962 32.5577 21.5164 32.3891 21.6629 32.0558C21.8178 31.7037 21.973 31.1211 21.973 31.1211Z" fill="white"/>
<path d="M1 19.8069L13.4027 13.4338V14.5097C13.4027 14.6311 13.3696 14.736 13.3035 14.8242C13.2373 14.9125 13.1215 15.0008 12.9562 15.0891L3.81127 19.7241C3.44746 19.9117 3.05058 20.0552 2.62062 20.1545C3.08365 20.2538 3.48053 20.3917 3.81127 20.5683L12.9562 25.2198C13.1215 25.3081 13.2373 25.3964 13.3035 25.4847C13.3696 25.573 13.4027 25.6778 13.4027 25.7992V26.8752L1 20.4855V19.8069Z" stroke="white"/>
<path d="M38.1625 26.8752V25.7992C38.1625 25.6778 38.1956 25.573 38.2618 25.4847C38.3279 25.3854 38.4382 25.2971 38.5925 25.2198L47.7539 20.5683C48.0957 20.3917 48.4871 20.2538 48.9281 20.1545C48.7076 20.0993 48.5036 20.0386 48.3162 19.9724C48.1288 19.8951 47.9414 19.8124 47.7539 19.7241L38.5925 15.0891C38.3059 14.9346 38.1625 14.7415 38.1625 14.5097V13.4338L50.5652 19.8069V20.4855L38.1625 26.8752Z" stroke="white"/>
<path d="M25.8939 25.114C24.5797 27.5774 22.9011 29.5807 22.9011 29.5807L19.542 26.5217L20.0896 24.4102C20.0896 24.4102 20.6031 23.1005 20.9657 22.2988C21.8029 20.4475 22.4119 19.5856 23.3751 17.8999C24.2138 16.432 24.686 15.6102 25.5654 14.2049C26.359 12.9365 26.8322 12.2723 27.6462 11.0377C28.3722 9.93646 28.7713 9.30523 29.5079 8.22242C29.9325 7.59841 30.1707 7.24882 30.6031 6.63883C31.7676 4.99593 32.9029 3.2957 33.4505 2.59188C33.9981 1.88806 34.4944 1.12043 35.2028 1.00829C35.5459 0.953973 36.0789 1.18425 36.0789 1.18425C36.0789 1.18425 34.6961 4.2433 33.8886 6.28692C33.3539 7.63998 33.0876 8.43172 32.5744 9.80601L31.5887 12.4453C31.5887 12.4453 30.3026 15.8224 29.3984 17.8999C29.3984 17.8999 27.2081 22.6507 25.8939 25.114Z" stroke="white"/>
<path d="M21.973 31.1211L18.7402 28.1498C18.7402 28.1498 18.1102 28.3975 17.743 28.6235C17.4923 28.7777 17.3591 28.8773 17.1319 29.0645L17.1315 29.0648C16.8823 29.2702 16.74 29.3874 16.5317 29.6344C16.3234 29.8814 16.2318 30.0415 16.0714 30.3218L16.0712 30.3223C15.9249 30.5778 15.8532 30.7277 15.7393 30.9992C15.5906 31.3539 15.5424 31.5664 15.4292 31.934C15.3023 32.3463 15.257 32.5852 15.13 32.9975C15.0169 33.3651 14.9658 33.5764 14.8199 33.9323C14.6393 34.3731 14.5506 34.6378 14.2633 35.0176C14.0254 35.3321 13.8406 35.4661 13.5452 35.7272C13.2725 35.9683 13.12 36.1074 12.8163 36.308C12.4956 36.5198 11.9478 36.7708 11.9478 36.7708C11.9478 36.7708 12.5061 36.908 12.8707 36.9523C13.2745 37.0015 13.5049 37.0068 13.9114 36.9941C14.214 36.9847 14.6839 36.9288 14.6839 36.9288C14.6839 36.9288 15.3935 36.8987 15.8425 36.8308C16.2447 36.77 16.4717 36.7311 16.8615 36.6149C17.2135 36.5099 17.4058 36.4316 17.7409 36.281C18.1942 36.0772 18.4488 35.9526 18.856 35.6675C19.2117 35.4185 19.3946 35.2529 19.7028 34.947C20.0574 34.5949 20.2334 34.3726 20.5278 33.9688C20.8253 33.5608 20.9595 33.309 21.2132 32.8725C21.3962 32.5577 21.5164 32.3891 21.6629 32.0558C21.8178 31.7037 21.973 31.1211 21.973 31.1211Z" stroke="white"/>
</g>
<g id="Zen Web Design">
<path id="Vector_2" d="M222.455 15.7124L222.666 18.372L222.561 17.9506C222.912 17.1431 223.482 16.5024 224.272 16.0284C225.062 15.5369 225.975 15.2911 227.011 15.2911C228.046 15.2911 228.889 15.5983 229.539 16.2127C230.206 16.8096 230.548 17.5908 230.565 18.5563V26.6138H228.09V19.4252C228.073 18.8284 227.897 18.3456 227.564 17.977C227.248 17.5908 226.747 17.3977 226.063 17.3977C225.431 17.3977 224.86 17.5732 224.351 17.9243C223.842 18.2754 223.438 18.7582 223.14 19.3726C222.859 19.987 222.719 20.6979 222.719 21.5054V26.6138H220.27V15.7124H222.455Z" fill="white"/>
<path id="Vector_3" d="M211.352 32.0119C210.545 32.0119 209.834 31.9153 209.219 31.7222C208.605 31.5467 208.043 31.2921 207.534 30.9586C207.043 30.6251 206.569 30.2476 206.112 29.8263L207.534 28.1674C208.113 28.7116 208.702 29.1329 209.298 29.4314C209.895 29.7298 210.562 29.879 211.3 29.879C212.125 29.879 212.818 29.7386 213.38 29.4577C213.959 29.1944 214.398 28.817 214.696 28.3254C214.995 27.8515 215.144 27.2985 215.144 26.6665L215.17 23.7174L215.381 24.1913C215.065 24.9462 214.495 25.5869 213.669 26.1136C212.844 26.6226 211.844 26.8772 210.668 26.8772C209.667 26.8772 208.745 26.6226 207.903 26.1136C207.078 25.6045 206.411 24.9199 205.902 24.0597C205.41 23.182 205.164 22.1989 205.164 21.1105C205.164 19.9695 205.428 18.9689 205.954 18.1087C206.481 17.231 207.174 16.5376 208.034 16.0285C208.895 15.5194 209.834 15.2649 210.852 15.2649C211.817 15.2649 212.695 15.4668 213.485 15.8705C214.293 16.2567 214.881 16.757 215.249 17.3714L215.118 17.8191L215.381 15.7125H217.619V26.6929C217.619 27.6759 217.365 28.5712 216.856 29.3787C216.347 30.1862 215.627 30.8269 214.696 31.3009C213.766 31.7749 212.651 32.0119 211.352 32.0119ZM207.613 21.0579C207.613 21.7601 207.78 22.4008 208.113 22.9801C208.447 23.5594 208.895 24.0158 209.456 24.3493C210.036 24.6829 210.676 24.8496 211.379 24.8496C212.028 24.8496 212.607 24.7355 213.116 24.5073C213.643 24.2616 214.082 23.9368 214.433 23.5331C214.784 23.1117 215.03 22.629 215.17 22.0848V19.9256C215.012 19.399 214.749 18.9426 214.38 18.5564C214.012 18.1526 213.573 17.8454 213.064 17.6347C212.555 17.4065 211.993 17.2924 211.379 17.2924C210.676 17.2924 210.036 17.4504 209.456 17.7664C208.895 18.0824 208.447 18.53 208.113 19.1093C207.78 19.6711 207.613 20.3206 207.613 21.0579Z" fill="white"/>
<path id="Vector_4" d="M201.006 15.7124H203.455V26.6138H201.006V15.7124ZM200.822 11.7627C200.822 11.3765 200.971 11.0517 201.27 10.7884C201.586 10.5251 201.928 10.3934 202.297 10.3934C202.665 10.3934 202.99 10.5251 203.271 10.7884C203.569 11.0517 203.719 11.3765 203.719 11.7627C203.719 12.1664 203.569 12.5 203.271 12.7633C202.99 13.0091 202.665 13.1319 202.297 13.1319C201.928 13.1319 201.586 13.0003 201.27 12.737C200.971 12.4736 200.822 12.1489 200.822 11.7627Z" fill="white"/>
<path id="Vector_5" d="M194.918 26.8245C194.146 26.8245 193.391 26.6929 192.653 26.4295C191.934 26.1487 191.337 25.7361 190.863 25.1919L191.89 23.77C192.346 24.2089 192.811 24.5424 193.285 24.7706C193.777 24.9813 194.26 25.0866 194.734 25.0866C195.085 25.0866 195.41 25.0427 195.708 24.955C196.006 24.8672 196.243 24.7267 196.419 24.5336C196.612 24.323 196.709 24.0421 196.709 23.691C196.709 23.3048 196.577 22.9976 196.314 22.7694C196.068 22.5412 195.743 22.3569 195.339 22.2165C194.953 22.076 194.541 21.9444 194.102 21.8215C193.206 21.5231 192.522 21.1105 192.048 20.5839C191.574 20.0573 191.337 19.4165 191.337 18.6617C191.337 18.0824 191.477 17.547 191.758 17.0554C192.057 16.5464 192.487 16.1338 193.048 15.8178C193.628 15.5019 194.339 15.3439 195.181 15.3439C195.936 15.3439 196.612 15.4404 197.209 15.6335C197.806 15.8091 198.367 16.1075 198.894 16.5288L197.92 18.056C197.604 17.7225 197.226 17.4767 196.788 17.3188C196.349 17.1608 195.954 17.073 195.603 17.0554C195.304 17.0379 195.015 17.0818 194.734 17.1871C194.47 17.2924 194.251 17.4416 194.075 17.6347C193.9 17.8278 193.812 18.056 193.812 18.3194C193.812 18.688 193.935 18.9864 194.181 19.2146C194.426 19.4428 194.742 19.6272 195.129 19.7676C195.532 19.8905 195.927 20.0221 196.314 20.1626C196.858 20.3206 197.341 20.5312 197.762 20.7945C198.183 21.0579 198.517 21.3826 198.762 21.7688C199.026 22.155 199.157 22.6378 199.157 23.2171C199.157 23.8666 198.999 24.4722 198.683 25.034C198.385 25.5781 197.92 26.017 197.288 26.3505C196.673 26.6665 195.883 26.8245 194.918 26.8245Z" fill="white"/>
<path id="Vector_6" d="M184.819 26.8772C183.572 26.8772 182.501 26.6314 181.606 26.1399C180.711 25.6308 180.017 24.9462 179.526 24.086C179.052 23.2083 178.815 22.2077 178.815 21.0842C178.815 20.0134 179.087 19.0391 179.631 18.1614C180.175 17.2837 180.904 16.5815 181.817 16.0548C182.73 15.5282 183.748 15.2649 184.871 15.2649C186.311 15.2649 187.504 15.6862 188.452 16.5288C189.4 17.3714 190.041 18.53 190.375 20.0046L181.395 23.1644L180.816 21.7162L188.189 19.0303L187.662 19.3726C187.452 18.7933 187.101 18.293 186.609 17.8717C186.118 17.4329 185.477 17.2134 184.687 17.2134C184.02 17.2134 183.423 17.3802 182.896 17.7137C182.37 18.0297 181.957 18.4686 181.659 19.0303C181.36 19.5921 181.211 20.2328 181.211 20.9525C181.211 21.7074 181.369 22.3745 181.685 22.9538C182.001 23.5155 182.431 23.9631 182.975 24.2967C183.537 24.6127 184.169 24.7706 184.871 24.7706C185.345 24.7706 185.802 24.6829 186.24 24.5073C186.697 24.3318 187.118 24.1036 187.504 23.8227L188.637 25.6396C188.092 26.0082 187.478 26.3067 186.793 26.5349C186.126 26.7631 185.468 26.8772 184.819 26.8772Z" fill="white"/>
<path id="Vector_7" d="M162.123 26.6138V7.57593H167.31C169.189 7.57593 170.786 7.86558 172.103 8.44487C173.437 9.02417 174.508 9.78779 175.315 10.7357C176.123 11.6837 176.711 12.7369 177.079 13.8955C177.466 15.0366 177.659 16.1776 177.659 17.3187C177.659 18.7581 177.404 20.0484 176.895 21.1894C176.404 22.3305 175.719 23.3048 174.841 24.1123C173.963 24.9198 172.954 25.5429 171.813 25.9818C170.69 26.4031 169.496 26.6138 168.232 26.6138H162.123ZM164.677 24.1649H167.732C168.785 24.1649 169.75 24.0069 170.628 23.691C171.523 23.375 172.296 22.9186 172.945 22.3217C173.612 21.7248 174.13 20.9963 174.499 20.1362C174.867 19.2584 175.052 18.2666 175.052 17.1607C175.052 15.9845 174.859 14.9576 174.473 14.0799C174.086 13.1846 173.56 12.4385 172.893 11.8417C172.226 11.2448 171.471 10.7972 170.628 10.4987C169.785 10.1828 168.899 10.0248 167.969 10.0248H164.677V24.1649Z" fill="white"/>
<path id="Vector_8" d="M147.372 26.8771C146.372 26.8771 145.485 26.6577 144.713 26.2188C143.958 25.78 143.352 25.227 142.896 24.5599L143.185 23.7963V26.6138H140.737V6.23303H143.159V18.214L143.08 17.2924C143.519 16.6955 144.142 16.2128 144.95 15.8441C145.775 15.4579 146.688 15.2648 147.688 15.2648C148.671 15.2648 149.566 15.5018 150.374 15.9758C151.181 16.4497 151.822 17.1168 152.296 17.977C152.788 18.8196 153.033 19.829 153.033 21.0051C153.033 22.2339 152.77 23.2872 152.244 24.1649C151.734 25.0427 151.05 25.7185 150.19 26.1925C149.329 26.6489 148.39 26.8771 147.372 26.8771ZM146.872 24.7969C147.574 24.7969 148.206 24.6301 148.768 24.2966C149.329 23.9631 149.768 23.5154 150.084 22.9537C150.4 22.3744 150.558 21.7161 150.558 20.9788C150.558 20.2766 150.392 19.6447 150.058 19.0829C149.742 18.5036 149.303 18.0472 148.741 17.7137C148.197 17.3801 147.574 17.2134 146.872 17.2134C146.275 17.2134 145.722 17.3275 145.213 17.5557C144.704 17.7839 144.274 18.0999 143.923 18.5036C143.572 18.8898 143.326 19.3462 143.185 19.8729V22.0584C143.326 22.585 143.563 23.059 143.896 23.4803C144.23 23.8841 144.651 24.2088 145.16 24.4546C145.669 24.6828 146.24 24.7969 146.872 24.7969Z" fill="white"/>
<path id="Vector_9" d="M133.692 26.8772C132.446 26.8772 131.375 26.6314 130.48 26.1399C129.585 25.6308 128.891 24.9462 128.4 24.086C127.926 23.2083 127.689 22.2077 127.689 21.0842C127.689 20.0134 127.961 19.0391 128.505 18.1614C129.049 17.2837 129.778 16.5815 130.691 16.0548C131.603 15.5282 132.622 15.2649 133.745 15.2649C135.184 15.2649 136.378 15.6862 137.326 16.5288C138.274 17.3714 138.915 18.53 139.248 20.0046L130.269 23.1644L129.69 21.7162L137.063 19.0303L136.536 19.3726C136.326 18.7933 135.974 18.293 135.483 17.8717C134.991 17.4329 134.351 17.2134 133.561 17.2134C132.894 17.2134 132.297 17.3802 131.77 17.7137C131.244 18.0297 130.831 18.4686 130.533 19.0303C130.234 19.5921 130.085 20.2328 130.085 20.9525C130.085 21.7074 130.243 22.3745 130.559 22.9538C130.875 23.5155 131.305 23.9631 131.849 24.2967C132.411 24.6127 133.043 24.7706 133.745 24.7706C134.219 24.7706 134.675 24.6829 135.114 24.5073C135.571 24.3318 135.992 24.1036 136.378 23.8227L137.51 25.6396C136.966 26.0082 136.352 26.3067 135.667 26.5349C135 26.7631 134.342 26.8772 133.692 26.8772Z" fill="white"/>
<path id="Vector_10" d="M105.068 7.68127H108.017L113.178 22.2164L112.731 22.0321L116.496 12.2893L117.681 15.7388L112.652 27.4827L105.068 7.68127ZM114.205 7.68127H116.76L122.342 22.0057L121.815 21.9004L126.739 7.68127H129.451L121.973 27.4564L114.205 7.68127Z" fill="white"/>
<path id="Vector_11" d="M88.5812 15.7124L88.7918 18.372L88.6865 17.9506C89.0376 17.1431 89.6081 16.5024 90.3981 16.0284C91.188 15.5369 92.1008 15.2911 93.1366 15.2911C94.1723 15.2911 95.0149 15.5983 95.6644 16.2127C96.3315 16.8096 96.6738 17.5908 96.6913 18.5563V26.6138H94.2162V19.4252C94.1986 18.8284 94.0231 18.3456 93.6895 17.977C93.3735 17.5908 92.8732 17.3977 92.1886 17.3977C91.5566 17.3977 90.9861 17.5732 90.477 17.9243C89.968 18.2754 89.5642 18.7582 89.2658 19.3726C88.9849 19.987 88.8445 20.6979 88.8445 21.5054V26.6138H86.3956V15.7124H88.5812Z" fill="white"/>
<path id="Vector_12" d="M79.3509 26.8772C78.1046 26.8772 77.0337 26.6314 76.1385 26.1399C75.2432 25.6308 74.5498 24.9462 74.0582 24.086C73.5843 23.2083 73.3473 22.2077 73.3473 21.0842C73.3473 20.0134 73.6194 19.0391 74.1636 18.1614C74.7078 17.2837 75.4363 16.5815 76.3491 16.0548C77.2619 15.5282 78.2801 15.2649 79.4036 15.2649C80.8431 15.2649 82.0368 15.6862 82.9847 16.5288C83.9326 17.3714 84.5734 18.53 84.9069 20.0046L75.9278 23.1644L75.3485 21.7162L82.7214 19.0303L82.1948 19.3726C81.9841 18.7933 81.633 18.293 81.1415 17.8717C80.65 17.4329 80.0092 17.2134 79.2193 17.2134C78.5522 17.2134 77.9553 17.3802 77.4287 17.7137C76.9021 18.0297 76.4895 18.4686 76.1911 19.0303C75.8927 19.5921 75.7435 20.2328 75.7435 20.9525C75.7435 21.7074 75.9015 22.3745 76.2175 22.9538C76.5334 23.5155 76.9635 23.9631 77.5077 24.2967C78.0694 24.6127 78.7014 24.7706 79.4036 24.7706C79.8776 24.7706 80.334 24.6829 80.7728 24.5073C81.2293 24.3318 81.6506 24.1036 82.0368 23.8227L83.169 25.6396C82.6248 26.0082 82.0104 26.3067 81.3258 26.5349C80.6587 26.7631 80.0004 26.8772 79.3509 26.8772Z" fill="white"/>
<path id="Vector_13" d="M56.3391 26.6138C56.5322 26.333 56.8219 25.9029 57.2081 25.3236C57.6118 24.7443 58.077 24.0597 58.6036 23.2697C59.1303 22.4798 59.692 21.6284 60.2889 20.7155C60.9033 19.8027 61.5265 18.8723 62.1584 17.9244C62.8079 16.9764 63.4311 16.0548 64.028 15.1595C64.6424 14.2467 65.2129 13.4041 65.7395 12.6317C66.2662 11.8417 66.7226 11.1659 67.1088 10.6041C67.5125 10.0248 67.811 9.60354 68.0041 9.34022L68.3464 10.0248H59.5516C59.218 10.0248 58.8845 9.9634 58.551 9.84052C58.2174 9.71764 57.9453 9.53332 57.7347 9.28756C57.524 9.04179 57.4187 8.75215 57.4187 8.41861V6.62805H59.7886V6.97036C59.7886 7.28635 59.85 7.47067 59.9729 7.52333C60.0958 7.55844 60.3064 7.57599 60.6049 7.57599H72.0065L60.4995 24.481L60.3415 24.165H72.3225V26.6138H56.3391Z" fill="white"/>
</g>
</g>
</g>
</g>
</g>
<defs>
<clipPath id="clip0_28_915">
<rect width="1280" height="2534" fill="white" transform="translate(-63 -2319)"/>
</clipPath>
</defs>
</svg>
